<svg width="48" height="48" viewBox="0 0 48 48" fill="none" xmlns="http://www.w3.org/2000/svg">
<path fill-rule="evenodd" clip-rule="evenodd" d="M0 18.032C0 11.6537 0 8.46456 1.26097 6.03709C2.32358 3.99148 3.99148 2.32358 6.03709 1.26097C8.46456 0 11.6537 0 18.032 0H29.968C36.3463 0 39.5354 0 41.9629 1.26097C44.0085 2.32358 45.6764 3.99148 46.739 6.03709C48 8.46456 48 11.6537 48 18.032V29.968C48 36.3463 48 39.5354 46.739 41.9629C45.6764 44.0085 44.0085 45.6764 41.9629 46.739C39.5354 48 36.3463 48 29.968 48H18.032C11.6537 48 8.46456 48 6.03709 46.739C3.99148 45.6764 2.32358 44.0085 1.26097 41.9629C0 39.5354 0 36.3463 0 29.968V18.032Z" fill="#F2F2F2"/>
<path fill-rule="evenodd" clip-rule="evenodd" d="M0 18.032C0 11.6537 0 8.46456 1.26097 6.03709C2.32358 3.99148 3.99148 2.32358 6.03709 1.26097C8.46456 0 11.6537 0 18.032 0H29.968C36.3463 0 39.5354 0 41.9629 1.26097C44.0085 2.32358 45.6764 3.99148 46.739 6.03709C48 8.46456 48 11.6537 48 18.032V27.3013C48 33.6796 48 36.8688 46.739 39.2962C45.6764 41.3418 44.0085 43.0098 41.9629 44.0724C39.5354 45.3333 36.3463 45.3333 29.968 45.3333H18.032C11.6537 45.3333 8.46456 45.3333 6.03709 44.0724C3.99148 43.0098 2.32358 41.3418 1.26097 39.2962C0 36.8688 0 33.6796 0 27.3013V18.032Z" fill="white"/>
<path opacity="0.5" fill-rule="evenodd" clip-rule="evenodd" d="M0 18.032C0 11.6537 0 8.46456 1.26097 6.03709C2.32358 3.99148 3.99148 2.32358 6.03709 1.26097C8.46456 0 11.6537 0 18.032 0H29.968C36.3463 0 39.5354 0 41.9629 1.26097C44.0085 2.32358 45.6764 3.99148 46.739 6.03709C48 8.46456 48 11.6537 48 18.032V27.3013C48 33.6796 48 36.8688 46.739 39.2962C45.6764 41.3418 44.0085 43.0098 41.9629 44.0724C39.5354 45.3333 36.3463 45.3333 29.968 45.3333H18.032C11.6537 45.3333 8.46456 45.3333 6.03709 44.0724C3.99148 43.0098 2.32358 41.3418 1.26097 39.2962C0 36.8688 0 33.6796 0 27.3013V18.032Z" fill="white" fill-opacity="0.12"/>
<g filter="url(#filter0_d_219_33265)">
<path fill-rule="evenodd" clip-rule="evenodd" d="M21.0184 27.0649L23.4697 24.6136L25.3553 26.4992C26.5037 27.6475 27.4295 28.0077 29.1266 26.6878C29.5037 26.3106 30.1636 25.8392 30.9179 26.2164L34.5006 28.6677C35.5377 29.5162 35.6223 29.9795 35.3491 30.6476C33.6532 34.7929 28.278 34.1359 21.0184 27.0649ZM21.0184 27.0649C13.9473 19.8053 13.2904 14.4301 17.4357 12.7342C18.1038 12.461 18.5671 12.5456 19.4156 13.5827L21.8669 17.1654C22.244 17.9196 21.7726 18.5796 21.3955 18.9567C20.0756 20.6538 20.4357 21.5796 21.5841 22.728L23.4697 24.6136L21.0184 27.0649Z" fill="#5C6171"/>
</g>
<defs>
<filter id="filter0_d_219_33265" x="11.4026" y="9.66762" width="27.5464" height="27.5464" filterUnits="userSpaceOnUse" color-interpolation-filters="sRGB">
<feFlood flood-opacity="0" result="BackgroundImageFix"/>
<feColorMatrix in="SourceAlpha" type="matrix" values="0 0 0 0 0 0 0 0 0 0 0 0 0 0 0 0 0 0 127 0" result="hardAlpha"/>
<feMorphology radius="2.4" operator="dilate" in="SourceAlpha" result="effect1_dropShadow_219_33265"/>
<feOffset dy="0.533333"/>
<feGaussianBlur stdDeviation="0.533333"/>
<feColorMatrix type="matrix" values="0 0 0 0 0.0546562 0 0 0 0 0.0276042 0 0 0 0 0.220833 0 0 0 0.25 0"/>
<feBlend mode="normal" in2="BackgroundImageFix" result="effect1_dropShadow_219_33265"/>
<feBlend mode="normal" in="SourceGraphic" in2="effect1_dropShadow_219_33265" result="shape"/>
</filter>
</defs>
</svg>
